<?xml version="1.0" encoding="utf-8"?>
<!-- Generator: Adobe Illustrator 22.0.1, SVG Export Plug-In . SVG Version: 6.00 Build 0)  -->
<svg version="1.1" id="Calque_1" xmlns="http://www.w3.org/2000/svg" xmlns:xlink="http://www.w3.org/1999/xlink" x="0px" y="0px"
	 viewBox="0 0 34 20" style="enable-background:new 0 0 34 20;" xml:space="preserve">
<path d="M3.8,16c-1,0-1.8-0.3-2.5-0.8c-0.1-0.1-0.4-0.4-0.5-0.5c-0.3-0.3-0.4-0.7-0.6-1c-0.4-1.1-0.2-2.5,0.5-4.1
	C1.4,8.2,2.3,6.8,4,5c0.2-0.3,1-1.1,1-1.1c0,0,0,0.1-0.1,0.2c-0.4,0.7-0.8,1.6-1,2.3C3.6,7.5,3.6,8.5,4,9.3c0.3,0.5,0.7,1,1.3,1.3
	c0.9,0.5,2.3,0.5,3.9,0.1c0.1,0,5.7-1.5,12.5-3.3C28.5,5.6,34,4.1,34,4.1s-15.7,6.7-23.9,10.2c-1.3,0.6-1.6,0.7-2.2,0.9
	C6.3,15.8,4.9,16,3.8,16z"/>
</svg>
